<?xml version="1.0" encoding="utf-8"?>
<!-- Generator: Adobe Illustrator 24.2.1, SVG Export Plug-In . SVG Version: 6.00 Build 0)  -->
<svg version="1.0" id="Layer_1" xmlns="http://www.w3.org/2000/svg" xmlns:xlink="http://www.w3.org/1999/xlink" x="0px" y="0px"
	 width="1249.2px" height="597.3px" viewBox="0 0 1249.2 597.3" style="enable-background:new 0 0 1249.2 597.3;"
	 xml:space="preserve">
<style type="text/css">
	.st0{fill:#D7625D;}
	.st1{fill:#4A4A49;}
</style>
<path class="st0" d="M293.4,198.1l37-37.6c2.6-2.6,3.3-6.7,1-8.7c-8.5-8.5-33.1-3.5-48,11.2c-14.1,13.7-20.6,41.8-11,50.1
	c1.3,1.2,3.9,2.7,8.7-2.5L293.4,198.1z M323.3,237.8c-1.2,1.3-6.9,7.6,1.9,8.5c0.2,0,32,2.5,78.2-22.3v60.1
	c-8.3,8.1-100,48.3-159.1-10.8c-42.9-42.8-43.1-113.1-0.8-151.6c69.7-63.2,158.1-14.1,159.3,24.1c0.2,8.1-6.6,18.1-12.3,23.9
	L323.3,237.8z"/>
<rect x="426.3" y="10.9" class="st0" width="58" height="294.3"/>
<path class="st0" d="M809.6,163.9c-4.3,4.5-6,8.6-6,14.8v126.5h-58.9V178.7c0-23.4,5.4-39.2,21.8-55.9
	c17.2-17.5,33.7-23.7,58.3-23.7h25.8v58.4h-25.8C818.3,157.5,814.1,159.4,809.6,163.9"/>
<rect x="872.8" y="99.1" class="st0" width="58.8" height="206.1"/>
<path class="st0" d="M862.7,39.6c0-21.9,17.7-39.7,39.6-39.7c21.9,0,39.7,17.7,39.8,39.6c0,21.9-17.7,39.7-39.6,39.7c0,0,0,0-0.1,0
	C880.5,79.3,862.7,61.6,862.7,39.6"/>
<path class="st0" d="M32.5,11.5h69.5c55.6,0,102.5,48.7,102.1,104.4c-0.6,64.3-48.5,104.2-103.4,105.3c-17.2,0.4-24.3-2-25.6-2.4
	l-0.2-0.1v-61c-0.2,1,14.6,2.3,24.4,1.3c27-3.1,41-16.9,42-42.2c0-23.3-18.9-42.4-42-42.4H69.5c-0.8,0-5.6,1-8.1,3.3
	c-2.7,2.4-3.6,7.3-3.6,8.5v219H0V43.7C0,23.7,12.5,11.5,32.5,11.5"/>
<path class="st0" d="M1102.2,120.3c-8.1-7.3-17.5-13-27.7-16.9c-8.5-3.3-19.1-5.4-31.6-5.6c-52.6-1-88,39-88,87.4v120h58.9V186.6
	c0-16.3,13.2-29.4,29.4-29.4s29.4,13.2,29.4,29.4v118.6h58.9V186.6c0-16.3,13.2-29.5,29.5-29.5c16.3,0,29.5,13.2,29.5,29.5v118.6
	h58.6v-120c0-48.3-35.3-88.4-87.8-87.4c-12.7,0.2-23.1,2.3-31.8,5.6C1119.5,107.3,1110.2,113,1102.2,120.3"/>
<path class="st0" d="M722,253.4l0.2-50.5c0-58.9-48-106.1-107.1-106.1c-58.9,0-106.9,47.4-106.9,106.3S548.3,313.7,615,308.9
	c13.7-0.9,27.2-5.6,29.7-6.5l0.4-0.2v-60.1c-0.8,0-12.3,10.2-33.7,9.2c-25.4-1-44.3-23.1-44.3-48.5c0-26,21.8-46.2,47.8-46.2
	c26.4,0,47.9,20.2,47.9,46.2v89.6c0,14.5-6.3,23.9-17.5,31.2c-31.7,21.2-78.3,3.5-87.3-0.2l-1.5-0.7v58.7l1,0.4
	c5.7,2.5,36.8,14.5,87.9,5c15-2.7,80.3-28.1,76.5-110.2L722,253.4z"/>
<path class="st1" d="M119.4,475.7c5.9,6.3,8.9,15.2,8.9,26.5v47.7c0.1,2.3-0.8,4.5-2.3,6.1c-3.3,3.4-8.7,3.5-12.1,0.2
	c-1.7-1.6-2.6-3.9-2.6-6.2v-47.7c0-6.8-1.7-11.9-5.1-15.4c-3.4-3.5-7.9-5.3-13.5-5.3c-5.4-0.2-10.6,2-14.3,6
	c-3.7,4-5.6,9.1-5.6,15.3v47.1c0.1,2.3-0.8,4.5-2.3,6.1c-3.3,3.4-8.7,3.5-12.1,0.2c-1.7-1.6-2.6-3.9-2.6-6.2v-47.7
	c0-6.8-1.7-11.9-5.1-15.4c-3.4-3.5-7.9-5.3-13.6-5.3c-5.5-0.2-10.7,2-14.4,6c-3.7,4-5.6,9.1-5.6,15.3v47.1c0.1,2.3-0.8,4.5-2.3,6.1
	c-3.3,3.4-8.7,3.5-12.1,0.2c-1.7-1.6-2.6-3.9-2.6-6.2v-74.3c-0.1-2.3,0.8-4.6,2.4-6.2c3.3-3.4,8.7-3.4,12-0.1c1.6,1.6,2.5,3.7,2.6,6
	c2.9-2.9,6.5-5.2,10.3-6.7c4.1-1.6,8.6-2.5,13-2.4c5.3-0.1,10.6,1.1,15.3,3.4c4.5,2.3,8.3,5.6,11.1,9.8c3.4-4.1,7.7-7.5,12.5-9.7
	c5.2-2.4,10.9-3.6,16.7-3.5C105.7,466.1,113.5,469.3,119.4,475.7z"/>
<path class="st1" d="M174.6,553c-6.9-3.8-12.6-9.5-16.4-16.4c-7.8-15-7.8-32.9,0-47.9c3.8-6.9,9.5-12.6,16.4-16.5
	c7.3-4,15.5-6.1,23.9-5.9c8.3-0.1,16.4,1.9,23.6,5.9c6.9,3.9,12.5,9.6,16.4,16.5c7.9,15,7.9,32.9,0.1,47.9
	c-3.8,6.9-9.4,12.6-16.3,16.5c-7.3,4-15.5,6.1-23.8,5.9C190.1,559.1,181.9,557.1,174.6,553z M213.7,539.9c4.5-2.6,8.1-6.5,10.5-11.1
	c2.6-5,3.9-10.5,3.8-16.1c0.1-5.6-1.2-11.2-3.8-16.2c-2.4-4.6-6-8.5-10.5-11.2c-9.5-5.3-21.1-5.3-30.5,0c-4.5,2.7-8.2,6.5-10.6,11.2
	c-2.6,5-3.9,10.6-3.8,16.2c-0.1,5.6,1.2,11.1,3.8,16.1c2.4,4.6,6.1,8.4,10.6,11.1C192.7,545.3,204.3,545.3,213.7,539.9L213.7,539.9z
	"/>
<path class="st1" d="M285.8,553c-6.9-3.8-12.6-9.5-16.4-16.4c-7.8-15-7.8-32.9,0-47.9c3.8-6.9,9.5-12.6,16.4-16.5
	c7.3-4,15.5-6.1,23.9-5.9c8.3-0.1,16.4,1.9,23.6,5.9c6.9,3.9,12.5,9.6,16.4,16.5c7.9,15,7.9,32.9,0.1,47.9
	c-3.8,6.9-9.4,12.6-16.3,16.4C318.6,560.9,300.7,560.9,285.8,553L285.8,553z M325,539.9c4.5-2.6,8.1-6.5,10.5-11.1
	c2.6-5,3.9-10.5,3.8-16.1c0.1-5.6-1.2-11.2-3.8-16.2c-2.4-4.6-6-8.5-10.5-11.2c-9.5-5.3-21.1-5.3-30.5,0c-4.5,2.7-8.2,6.5-10.6,11.2
	c-2.6,5-3.9,10.6-3.8,16.2c-0.1,5.6,1.2,11.1,3.8,16.1c2.4,4.6,6.1,8.4,10.6,11.1C303.9,545.3,315.5,545.3,325,539.9z"/>
<path class="st1" d="M380.1,448.9c-4.2-4.3-4.1-11.2,0.2-15.4c4.3-4.2,11.2-4.1,15.4,0.2s4.1,11.2-0.2,15.4c-2,2-4.8,3.1-7.6,3.1
	C384.9,452.2,382.1,451,380.1,448.9z M381.7,555.9c-1.6-1.6-2.5-3.8-2.4-6.1v-74.3c-0.1-2.3,0.8-4.6,2.4-6.2c3.2-3.4,8.6-3.5,12-0.3
	c1.8,1.7,2.7,4,2.6,6.5v74.3c0.1,2.3-0.8,4.5-2.3,6.1C390.6,559.1,385.2,559.1,381.7,555.9L381.7,555.9z"/>
<path class="st1" d="M600.4,475.7c5.9,6.3,8.9,15.2,8.9,26.5v47.7c0.1,2.3-0.8,4.5-2.3,6.1c-3.3,3.4-8.7,3.5-12.1,0.2
	c-1.7-1.6-2.6-3.9-2.6-6.2v-47.7c0-6.8-1.7-11.9-5.1-15.4c-3.4-3.5-7.9-5.3-13.6-5.3c-5.4-0.2-10.6,2-14.3,6
	c-3.7,4-5.6,9.1-5.6,15.3v47.1c0.1,2.3-0.8,4.5-2.3,6.1c-3.3,3.4-8.7,3.5-12.1,0.2c-1.7-1.6-2.6-3.9-2.6-6.3v-47.7
	c0-6.8-1.7-11.9-5.1-15.4c-3.4-3.5-7.9-5.3-13.6-5.3c-5.5-0.2-10.7,2-14.4,6c-3.7,4-5.6,9.1-5.6,15.3v47.1c0.1,2.3-0.8,4.5-2.3,6.1
	c-3.3,3.4-8.7,3.5-12.1,0.2c-1.7-1.6-2.6-3.9-2.6-6.2v-74.3c-0.1-2.3,0.8-4.6,2.4-6.2c3.3-3.4,8.7-3.4,12-0.1c1.6,1.6,2.5,3.7,2.6,6
	c3-2.9,6.5-5.2,10.4-6.7c4.1-1.6,8.6-2.5,13-2.4c5.3-0.1,10.5,1.1,15.3,3.4c4.5,2.3,8.3,5.6,11.1,9.8c3.4-4.1,7.7-7.5,12.5-9.7
	c5.2-2.4,10.9-3.6,16.7-3.5C586.6,466.1,594.4,469.3,600.4,475.7z"/>
<path class="st1" d="M701,472.4c6.9,4,12.6,9.8,16.5,16.7c4.1,7.2,6.2,15.3,6.1,23.6v37.2c0.2,4.7-3.4,8.7-8.1,8.9
	c-4.7,0.2-8.7-3.4-8.9-8.1c0-0.3,0-0.6,0-0.8v-6.2c-13.3,16-36.2,19.9-54,9.2c-6.5-4-11.9-9.8-15.4-16.6c-3.8-7.3-5.7-15.4-5.6-23.6
	c-0.1-8.3,2-16.4,6-23.6c3.9-7,9.7-12.7,16.6-16.7c7.1-4.1,15.2-6.2,23.5-6.1C685.9,466.2,694,468.3,701,472.4z M692.8,539.8
	c4.5-2.7,8.1-6.6,10.6-11.2c2.6-4.9,3.9-10.4,3.8-15.9c0.1-5.6-1.2-11.1-3.8-16c-7.8-14.3-25.6-19.5-39.9-11.8
	c-0.3,0.2-0.6,0.3-0.9,0.5c-4.5,2.7-8.2,6.6-10.7,11.3c-2.6,4.9-4,10.4-3.9,16c-0.1,5.6,1.3,11.1,3.9,15.9
	c2.5,4.6,6.2,8.5,10.7,11.2C672,545.3,683.5,545.3,692.8,539.8z"/>
<path class="st1" d="M819.8,551.3c0,2.4-1.1,4.7-3,6.2c-1.5,1.3-3.4,2-5.3,2c-2.4,0-4.6-1.1-6-3l-31.8-39.2l-8.3,7.3v25.5
	c0,4.5-3.7,8.2-8.2,8.2s-8.2-3.7-8.2-8.2c0,0,0,0,0,0v-114c-0.2-4.5,3.3-8.4,7.8-8.6c4.5-0.2,8.4,3.3,8.6,7.8c0,0.3,0,0.5,0,0.8V504
	l40.6-36.2c1.3-1.4,3.2-2.2,5.2-2.2c2.2-0.1,4.3,0.9,5.7,2.7c1.4,1.4,2.2,3.2,2.2,5.2c0.1,2.2-0.9,4.3-2.7,5.7l-30.7,27.4l32.4,39.7
	C819.2,547.6,819.8,549.4,819.8,551.3z"/>
<path class="st1" d="M914.8,551.3c0,2.4-1.1,4.7-3,6.2c-1.5,1.3-3.4,2-5.3,2c-2.4,0-4.6-1.1-6-3l-31.7-39.2l-8.3,7.3v25.5
	c0,4.5-3.7,8.2-8.2,8.2s-8.2-3.7-8.2-8.2c0,0,0,0,0,0v-114c0-4.5,3.7-8.2,8.2-8.2c4.5,0,8.2,3.7,8.2,8.2c0,0,0,0,0,0V504l40.6-36.2
	c1.3-1.4,3.2-2.2,5.2-2.2c2.2-0.1,4.3,0.9,5.7,2.7c1.4,1.4,2.2,3.2,2.2,5.2c0.1,2.2-0.9,4.3-2.7,5.7l-30.7,27.4l32.4,39.7
	C914.2,547.6,914.8,549.4,914.8,551.3z"/>
<path class="st1" d="M1010.4,516.5c-1.5,1.4-3.5,2.2-5.5,2.1h-63.4c1,7.4,4.8,14.1,10.6,18.9c5.8,4.8,13,7.2,21.5,7.2
	c3.6,0,7.1-0.7,10.4-1.8c3.2-1,6.2-2.5,8.9-4.5c1.6-1.2,3.5-1.9,5.5-1.8c1.8-0.1,3.6,0.5,5,1.7c1.8,1.3,2.9,3.4,3,5.7
	c0,2-1,3.9-2.7,5c-4.2,3.2-9,5.7-14.1,7.3c-13.4,4.7-28.1,3.5-40.6-3.1c-7.1-3.8-13-9.5-17-16.5c-4.1-7.3-6.2-15.5-6.1-23.9
	c-0.1-8.4,1.8-16.6,5.8-24c3.7-6.9,9.2-12.6,16-16.5c7.1-4,15.1-6.1,23.3-5.9c8.6,0,16,1.9,22.2,5.7c6.2,3.8,11.2,9.3,14.3,15.9
	c3.5,7.3,5.2,15.3,5,23.4C1012.6,513.1,1011.8,515.1,1010.4,516.5z M951.2,487.3c-5.1,4.5-8.3,10.4-9.6,17.9h55.6
	c-1-7.5-3.8-13.4-8.3-17.9s-10.5-6.7-17.9-6.7C962.9,480.7,956.3,482.9,951.2,487.3L951.2,487.3z"/>
<path class="st1" d="M1043.1,554.4c-4-2.7-7.1-6.6-8.9-11c-2.2-5-3.3-10.5-3.2-15.9v-91.2c-0.2-4.6,3.4-8.5,8.1-8.6
	c4.6-0.2,8.5,3.4,8.6,8.1c0,0.2,0,0.4,0,0.6v91.1c-0.1,3.5,0.7,7.1,2.3,10.2c1.6,2.7,3.6,4,6,4h4.2c2.1-0.1,4,0.8,5.4,2.3
	c1.4,1.7,2.2,3.8,2.1,6c0,2.4-1.2,4.7-3.2,6c-2.4,1.6-5.3,2.5-8.2,2.3h-0.3C1051.4,558.3,1046.9,557,1043.1,554.4z"/>
<path class="st1" d="M1088,448.9c-4.2-4.3-4.1-11.2,0.2-15.4s11.2-4.1,15.4,0.2s4.1,11.2-0.2,15.4c-2,2-4.8,3.1-7.6,3.1
	C1092.8,452.2,1090,451,1088,448.9z M1089.6,555.9c-1.6-1.6-2.5-3.8-2.4-6.1v-74.3c-0.1-2.3,0.8-4.6,2.4-6.2c3.2-3.4,8.6-3.5,12-0.3
	c1.8,1.7,2.7,4,2.6,6.5v74.3c0.1,2.3-0.8,4.5-2.3,6.1C1098.4,559.1,1093.1,559.1,1089.6,555.9L1089.6,555.9z"/>
<path class="st1" d="M1107.2,594.9c-3.1-3.5-3.1-8.7,0-12.2c1.6-1.6,3.7-2.5,6-2.4c6.6,0,12-2.1,16.2-6.3c4.2-4.2,6.3-9.5,6.3-16.1
	v-82.5c-0.1-2.3,0.8-4.6,2.4-6.2c3.2-3.4,8.6-3.5,12-0.3c1.8,1.7,2.7,4,2.6,6.5V558c0.1,7.1-1.6,14.1-5,20.4
	c-3.2,5.9-8.1,10.8-14,14c-6.3,3.4-13.4,5.1-20.5,5C1110.9,597.4,1108.7,596.5,1107.2,594.9z M1136.5,448.9
	c-4.2-4.3-4.1-11.2,0.2-15.4s11.2-4.1,15.4,0.2s4.1,11.2-0.2,15.4c-2,2-4.8,3.1-7.6,3.1C1141.3,452.2,1138.5,451,1136.5,448.9z"/>
<path class="st1" d="M1249.2,551.3c0,2.4-1.1,4.7-3,6.2c-1.5,1.3-3.4,2-5.3,2c-2.4,0-4.6-1.1-6-3l-31.7-39.2l-8.3,7.3v25.5
	c0,4.5-3.7,8.2-8.2,8.2c-4.5,0-8.2-3.7-8.2-8.2c0,0,0,0,0,0v-114c-0.2-4.5,3.3-8.4,7.8-8.6c4.5-0.2,8.4,3.3,8.6,7.8
	c0,0.3,0,0.5,0,0.8v67.9l40.6-36.2c1.3-1.4,3.2-2.2,5.2-2.2c2.2-0.1,4.3,0.9,5.7,2.7c1.4,1.4,2.2,3.2,2.2,5.2
	c0.1,2.2-0.9,4.3-2.7,5.7l-30.7,27.4l32.4,39.7C1248.6,547.7,1249.3,549.4,1249.2,551.3z"/>
</svg>
